<svg width="1024" height="1024" viewBox="0 0 1024 1024" fill="none" xmlns="http://www.w3.org/2000/svg">
<rect width="1024" height="1024" rx="140" fill="#E6F1E0"/>
<circle cx="512" cy="512" r="330" fill="#B1D3BA"/>
<ellipse cx="512" cy="512" rx="180.538" ry="180.538" fill="#649288"/>
<path d="M451.344 443.251C451.344 430.935 464.677 423.236 475.344 429.395L594.882 498.41C605.549 504.569 605.549 519.965 594.882 526.123L475.344 595.139C464.677 601.297 451.344 593.599 451.344 581.282L451.344 443.251Z" fill="#E6F1E0"/>
<ellipse cx="473.514" cy="334.421" rx="22.1863" ry="22.1973" fill="#89BEA4"/>
<path d="M480.909 239.584V313.728V336.641H494.96V268.768C494.96 267.05 496.399 265.684 498.114 265.771L523.839 267.09C532.713 259.691 537.854 239.713 528.24 236.777C515.285 251.784 495.416 238.491 483.7 236.904C482.135 236.692 480.909 238.004 480.909 239.584Z" fill="#89BEA4" stroke="#89BEA4"/>
<ellipse cx="30.7102" cy="42.3458" rx="30.7102" ry="42.3458" transform="matrix(0.72467 0.689096 -0.687389 0.726289 281.651 408.165)" fill="#89BEA4"/>
<path d="M372.36 340.73L373.029 408.235L396.574 419.752L395.957 312.623C395.911 304.727 387.809 299.449 380.568 302.599L285.309 344.043C283.119 344.996 281.703 347.157 281.703 349.545V422.631L276.709 426.95C285.746 437.507 304.249 458.909 305.961 460.06C307.674 461.212 310.004 455.262 310.956 452.143V364.157C310.956 362.951 311.678 361.863 312.789 361.394L368.193 337.996C370.159 337.166 372.339 338.596 372.36 340.73Z" fill="#89BEA4" stroke="#89BEA4"/>
<ellipse cx="26.6695" cy="37.0552" rx="26.6695" ry="37.0552" transform="matrix(0.787306 0.616562 -0.614761 0.788714 368.143 387.695)" fill="#89BEA4"/>
<path d="M689.936 609.551C688.456 645.067 650.721 682.063 629.264 691.681C618.905 697.601 627.044 708.487 637.403 703.52C691.416 677.623 703.255 631.009 703.995 614.731C705.474 599.933 690.676 598.453 689.936 609.551Z" fill="#89BEA4" stroke="#89BEA4"/>
<path d="M715.451 630.152C713.971 665.668 676.236 702.663 654.778 712.282C644.42 718.202 652.559 729.087 662.917 724.121C716.931 698.224 728.769 651.61 729.509 635.332C730.989 620.533 716.191 619.054 715.451 630.152Z" fill="#89BEA4" stroke="#89BEA4"/>
</svg>
