<svg width="660" height="660" viewBox="0 0 660 660" fill="none" xmlns="http://www.w3.org/2000/svg">
<circle cx="330" cy="330" r="330" fill="#B1D3BA"/>
<ellipse cx="330" cy="330" rx="180.538" ry="180.538" fill="#649288"/>
<path d="M269.344 261.251C269.344 248.935 282.677 241.236 293.344 247.395L412.882 316.41C423.549 322.569 423.549 337.965 412.882 344.123L293.344 413.139C282.677 419.297 269.344 411.599 269.344 399.282L269.344 261.251Z" fill="#E6F1E0"/>
<ellipse cx="291.514" cy="152.421" rx="22.1863" ry="22.1973" fill="#89BEA4"/>
<path d="M298.909 57.5835V131.728V154.641H312.96V86.7675C312.96 85.0504 314.399 83.6836 316.114 83.7715L341.839 85.0897C350.713 77.6906 355.854 57.713 346.24 54.777C333.285 69.7843 313.416 56.491 301.7 54.904C300.135 54.692 298.909 56.0042 298.909 57.5835Z" fill="#89BEA4" stroke="#89BEA4"/>
<ellipse cx="30.7102" cy="42.3458" rx="30.7102" ry="42.3458" transform="matrix(0.72467 0.689096 -0.687389 0.726289 99.6511 226.165)" fill="#89BEA4"/>
<path d="M190.36 158.73L191.029 226.235L214.574 237.752L213.957 130.623C213.911 122.727 205.809 117.449 198.568 120.599L103.309 162.043C101.119 162.996 99.7029 165.157 99.7029 167.545V240.631L94.7085 244.95C103.746 255.507 122.249 276.909 123.961 278.06C125.674 279.212 128.004 273.262 128.956 270.143V182.157C128.956 180.951 129.678 179.863 130.789 179.394L186.193 155.996C188.159 155.166 190.339 156.596 190.36 158.73Z" fill="#89BEA4" stroke="#89BEA4"/>
<ellipse cx="26.6695" cy="37.0552" rx="26.6695" ry="37.0552" transform="matrix(0.787306 0.616562 -0.614761 0.788714 186.143 205.695)" fill="#89BEA4"/>
<path d="M507.936 427.551C506.456 463.067 468.721 500.063 447.264 509.681C436.905 515.601 445.044 526.487 455.403 521.52C509.416 495.623 521.255 449.009 521.995 432.731C523.474 417.933 508.676 416.453 507.936 427.551Z" fill="#89BEA4" stroke="#89BEA4"/>
<path d="M533.451 448.152C531.971 483.668 494.236 520.663 472.778 530.282C462.42 536.202 470.559 547.087 480.917 542.121C534.931 516.224 546.769 469.61 547.509 453.332C548.989 438.533 534.191 437.054 533.451 448.152Z" fill="#89BEA4" stroke="#89BEA4"/>
</svg>
